# xmcd
#
# Track frame offsets: 
#        154
#        18770
#        42828
#        62699
#        85581
#        110415
#        128609
#        142795
#        170008
#        197222
#        212450
#        230007
#        245705
#        264518
#        281489
#
# Disc length: 3984 seconds
#
# Revision: 0
# Processed by: cddbd v1.4PL0 Copyright (c) Steve Scherf et al.
# Submitted via: ExactAudioCopy v0.95a4
#
DISCID=ca0f8e0f
DTITLE=Various Artist - Booty Phat Classics
DYEAR=2001
DGENRE=Rap
TTITLE0=K7-Come Baby Come
TTITLE1=Soul Sonic Force-Planet Rock
TTITLE2=Naughty by Nature-Hip Hop Hooray
TTITLE3=DJ Magic Mike-Drop the Bass
TTITLE4=Boys from the Bottom-Boom I got Girl
TTITLE5=Gucci Crew-Sally that Girl
TTITLE6=Luke-Work it Out
TTITLE7=2 Live Crew-Get it Girl
TTITLE8=2 Live Crew-C'mon Babe
TTITLE9=Anquette-Shake it
TTITLE10=Luke-Breakdown
TTITLE11=2 Live Crew-Move Somethin'
TTITLE12=Poison Clan-Dance All Night
TTITLE13=Mr Mixx/Baby Ced-Jam Session
TTITLE14=2 Live Crew-You Believe in Having S@#
EXTD=
EXTT0=
EXTT1=
EXTT2=
EXTT3=
EXTT4=
EXTT5=
EXTT6=
EXTT7=
EXTT8=
EXTT9=
EXTT10=
EXTT11=
EXTT12=
EXTT13=
EXTT14=
PLAYORDER=
